<?xml version="1.0" encoding="UTF-8" standalone="no"?>
<!DOCTYPE svg PUBLIC "-//W3C//DTD SVG 1.1//EN"
 "http://www.w3.org/Graphics/SVG/1.1/DTD/svg11.dtd">
<!-- Generated by graphviz version 2.43.0 (0)
 -->
<!-- Title: D Pages: 1 -->
<svg width="1412pt" height="1370pt"
 viewBox="0.00 0.00 1412.00 1370.10" xmlns="http://www.w3.org/2000/svg" xmlns:xlink="http://www.w3.org/1999/xlink">
<g id="graph0" class="graph" transform="scale(1 1) rotate(0) translate(4 1366.1)">
<title>D</title>
<polygon fill="white" stroke="transparent" points="-4,4 -4,-1366.1 1408,-1366.1 1408,4 -4,4"/>
<!-- node0 -->
<g id="node1" class="node">
<title>node0</title>
<ellipse fill="green" stroke="black" cx="510" cy="-1327.65" rx="34.39" ry="34.39"/>
<text text-anchor="middle" x="510" y="-1323.95" font-family="Times,serif" font-size="14.00">Start</text>
</g>
<!-- node1 -->
<g id="node2" class="node">
<title>node1</title>
<ellipse fill="green" stroke="black" cx="510" cy="-1199.36" rx="57.69" ry="57.69"/>
<text text-anchor="middle" x="510" y="-1195.66" font-family="Times,serif" font-size="14.00">ListsClass</text>
</g>
<!-- node0&#45;&gt;node1 -->
<g id="edge1" class="edge">
<title>node0&#45;&gt;node1</title>
<path fill="none" stroke="black" d="M510,-1293.14C510,-1285.18 510,-1276.4 510,-1267.52"/>
<polygon fill="black" stroke="black" points="513.5,-1267.48 510,-1257.48 506.5,-1267.48 513.5,-1267.48"/>
</g>
<!-- node2 -->
<g id="node3" class="node">
<title>node2</title>
<ellipse fill="green" stroke="black" cx="410" cy="-980.08" rx="57.69" ry="57.69"/>
<text text-anchor="middle" x="410" y="-976.38" font-family="Times,serif" font-size="14.00">ListsClass</text>
</g>
<!-- node1&#45;&gt;node2 -->
<g id="edge2" class="edge">
<title>node1&#45;&gt;node2</title>
<path fill="none" stroke="black" d="M486.17,-1146.59C471.7,-1115.16 453.16,-1074.87 437.99,-1041.91"/>
<polygon fill="black" stroke="black" points="441.17,-1040.45 433.81,-1032.83 434.81,-1043.37 441.17,-1040.45"/>
</g>
<!-- node20 -->
<g id="node21" class="node">
<title>node20</title>
<ellipse fill="green" stroke="black" cx="716" cy="-980.08" rx="125.38" ry="125.38"/>
<text text-anchor="middle" x="716" y="-976.38" font-family="Times,serif" font-size="14.00">CLASSESORINTERFACE</text>
</g>
<!-- node1&#45;&gt;node20 -->
<g id="edge20" class="edge">
<title>node1&#45;&gt;node20</title>
<path fill="none" stroke="black" d="M549.47,-1156.73C570.49,-1134.55 597.3,-1106.27 623.24,-1078.92"/>
<polygon fill="black" stroke="black" points="625.83,-1081.28 630.17,-1071.61 620.75,-1076.46 625.83,-1081.28"/>
</g>
<!-- node3 -->
<g id="node4" class="node">
<title>node3</title>
<ellipse fill="green" stroke="black" cx="305" cy="-693.2" rx="125.38" ry="125.38"/>
<text text-anchor="middle" x="305" y="-689.5" font-family="Times,serif" font-size="14.00">CLASSESORINTERFACE</text>
</g>
<!-- node2&#45;&gt;node3 -->
<g id="edge3" class="edge">
<title>node2&#45;&gt;node3</title>
<path fill="none" stroke="black" d="M390.25,-925.5C379.34,-895.9 365.29,-857.8 351.76,-821.08"/>
<polygon fill="black" stroke="black" points="354.89,-819.45 348.15,-811.28 348.32,-821.87 354.89,-819.45"/>
</g>
<!-- node4 -->
<g id="node5" class="node">
<title>node4</title>
<ellipse fill="green" stroke="black" cx="39" cy="-473.27" rx="38.99" ry="38.99"/>
<text text-anchor="middle" x="39" y="-469.57" font-family="Times,serif" font-size="14.00">public</text>
</g>
<!-- node3&#45;&gt;node4 -->
<g id="edge4" class="edge">
<title>node3&#45;&gt;node4</title>
<path fill="none" stroke="black" d="M200.59,-623.13C163.2,-596.43 121.74,-564.44 87,-531.76 80.73,-525.87 74.5,-519.19 68.71,-512.51"/>
<polygon fill="black" stroke="black" points="71.26,-510.11 62.13,-504.73 65.91,-514.63 71.26,-510.11"/>
</g>
<!-- node5 -->
<g id="node6" class="node">
<title>node5</title>
<ellipse fill="green" stroke="black" cx="130" cy="-473.27" rx="33.6" ry="33.6"/>
<text text-anchor="middle" x="130" y="-469.57" font-family="Times,serif" font-size="14.00">class</text>
</g>
<!-- node3&#45;&gt;node5 -->
<g id="edge5" class="edge">
<title>node3&#45;&gt;node5</title>
<path fill="none" stroke="black" d="M225.04,-596.5C207.7,-575.33 189.58,-552.9 173,-531.76 167.41,-524.64 161.54,-516.94 155.98,-509.55"/>
<polygon fill="black" stroke="black" points="158.44,-507 149.65,-501.08 152.84,-511.19 158.44,-507"/>
</g>
<!-- node6 -->
<g id="node7" class="node">
<title>node6</title>
<ellipse fill="green" stroke="black" cx="226" cy="-473.27" rx="44.39" ry="44.39"/>
<text text-anchor="middle" x="226" y="-469.57" font-family="Times,serif" font-size="14.00">intento</text>
</g>
<!-- node3&#45;&gt;node6 -->
<g id="edge6" class="edge">
<title>node3&#45;&gt;node6</title>
<path fill="none" stroke="black" d="M262.49,-574.94C256.08,-557.26 249.77,-539.86 244.26,-524.64"/>
<polygon fill="black" stroke="black" points="247.45,-523.18 240.75,-514.97 240.87,-525.56 247.45,-523.18"/>
</g>
<!-- node7 -->
<g id="node8" class="node">
<title>node7</title>
<ellipse fill="green" stroke="black" cx="306" cy="-473.27" rx="18" ry="18"/>
<text text-anchor="middle" x="306" y="-469.57" font-family="Times,serif" font-size="14.00">{</text>
</g>
<!-- node3&#45;&gt;node7 -->
<g id="edge7" class="edge">
<title>node3&#45;&gt;node7</title>
<path fill="none" stroke="black" d="M305.57,-567.64C305.68,-542.92 305.79,-519.3 305.87,-502"/>
<polygon fill="black" stroke="black" points="309.37,-501.61 305.92,-491.59 302.37,-501.58 309.37,-501.61"/>
</g>
<!-- node8 -->
<g id="node9" class="node">
<title>node8</title>
<ellipse fill="green" stroke="black" cx="387" cy="-473.27" rx="44.69" ry="44.69"/>
<text text-anchor="middle" x="387" y="-469.57" font-family="Times,serif" font-size="14.00">BODYC</text>
</g>
<!-- node3&#45;&gt;node8 -->
<g id="edge8" class="edge">
<title>node3&#45;&gt;node8</title>
<path fill="none" stroke="black" d="M348.88,-575.58C355.5,-557.98 362.02,-540.65 367.75,-525.43"/>
<polygon fill="black" stroke="black" points="371.14,-526.35 371.39,-515.76 364.59,-523.88 371.14,-526.35"/>
</g>
<!-- node19 -->
<g id="node20" class="node">
<title>node19</title>
<ellipse fill="green" stroke="black" cx="468" cy="-473.27" rx="18" ry="18"/>
<text text-anchor="middle" x="468" y="-469.57" font-family="Times,serif" font-size="14.00">}</text>
</g>
<!-- node3&#45;&gt;node19 -->
<g id="edge19" class="edge">
<title>node3&#45;&gt;node19</title>
<path fill="none" stroke="black" d="M389.91,-600.42C407.92,-578.73 426,-555.11 441,-531.76 447.46,-521.71 453.29,-509.86 457.86,-499.55"/>
<polygon fill="black" stroke="black" points="461.13,-500.8 461.84,-490.23 454.69,-498.05 461.13,-500.8"/>
</g>
<!-- node9 -->
<g id="node10" class="node">
<title>node9</title>
<ellipse fill="green" stroke="black" cx="387" cy="-317.03" rx="61.99" ry="61.99"/>
<text text-anchor="middle" x="387" y="-313.33" font-family="Times,serif" font-size="14.00">METHODC</text>
</g>
<!-- node8&#45;&gt;node9 -->
<g id="edge9" class="edge">
<title>node8&#45;&gt;node9</title>
<path fill="none" stroke="black" d="M387,-428.07C387,-415.87 387,-402.31 387,-389"/>
<polygon fill="black" stroke="black" points="390.5,-388.9 387,-378.9 383.5,-388.9 390.5,-388.9"/>
</g>
<!-- node10 -->
<g id="node11" class="node">
<title>node10</title>
<ellipse fill="green" stroke="black" cx="104" cy="-167.94" rx="38.99" ry="38.99"/>
<text text-anchor="middle" x="104" y="-164.24" font-family="Times,serif" font-size="14.00">public</text>
</g>
<!-- node9&#45;&gt;node10 -->
<g id="edge10" class="edge">
<title>node9&#45;&gt;node10</title>
<path fill="none" stroke="black" d="M327.59,-299.22C277.91,-283.44 206.62,-256.65 152,-219.28 146.3,-215.39 140.76,-210.73 135.59,-205.83"/>
<polygon fill="black" stroke="black" points="137.85,-203.14 128.29,-198.56 132.9,-208.1 137.85,-203.14"/>
</g>
<!-- node11 -->
<g id="node12" class="node">
<title>node11</title>
<ellipse fill="green" stroke="black" cx="197" cy="-167.94" rx="36" ry="36"/>
<text text-anchor="middle" x="197" y="-164.24" font-family="Times,serif" font-size="14.00">TYPE</text>
</g>
<!-- node9&#45;&gt;node11 -->
<g id="edge11" class="edge">
<title>node9&#45;&gt;node11</title>
<path fill="none" stroke="black" d="M334.05,-285.22C305.52,-267.54 270.45,-243.98 242,-219.28 236.52,-214.53 231.06,-209.13 225.93,-203.68"/>
<polygon fill="black" stroke="black" points="228.5,-201.3 219.17,-196.27 223.32,-206.01 228.5,-201.3"/>
</g>
<!-- node13 -->
<g id="node14" class="node">
<title>node13</title>
<ellipse fill="green" stroke="black" cx="302" cy="-167.94" rx="51.19" ry="51.19"/>
<text text-anchor="middle" x="302" y="-164.24" font-family="Times,serif" font-size="14.00">metodo1</text>
</g>
<!-- node9&#45;&gt;node13 -->
<g id="edge13" class="edge">
<title>node9&#45;&gt;node13</title>
<path fill="none" stroke="black" d="M356.31,-262.93C348.51,-249.42 340.13,-234.93 332.34,-221.45"/>
<polygon fill="black" stroke="black" points="335.36,-219.68 327.33,-212.77 329.3,-223.18 335.36,-219.68"/>
</g>
<!-- node14 -->
<g id="node15" class="node">
<title>node14</title>
<ellipse fill="green" stroke="black" cx="389" cy="-167.94" rx="18" ry="18"/>
<text text-anchor="middle" x="389" y="-164.24" font-family="Times,serif" font-size="14.00">(</text>
</g>
<!-- node9&#45;&gt;node14 -->
<g id="edge14" class="edge">
<title>node9&#45;&gt;node14</title>
<path fill="none" stroke="black" d="M387.83,-254.93C388.11,-234.47 388.4,-212.68 388.63,-196.16"/>
<polygon fill="black" stroke="black" points="392.13,-196.18 388.76,-186.13 385.13,-196.08 392.13,-196.18"/>
</g>
<!-- node15 -->
<g id="node16" class="node">
<title>node15</title>
<ellipse fill="green" stroke="black" cx="443" cy="-167.94" rx="18" ry="18"/>
<text text-anchor="middle" x="443" y="-164.24" font-family="Times,serif" font-size="14.00">)</text>
</g>
<!-- node9&#45;&gt;node15 -->
<g id="edge15" class="edge">
<title>node9&#45;&gt;node15</title>
<path fill="none" stroke="black" d="M408.65,-259.16C417.18,-236.75 426.54,-212.17 433.33,-194.33"/>
<polygon fill="black" stroke="black" points="436.62,-195.51 436.91,-184.92 430.08,-193.02 436.62,-195.51"/>
</g>
<!-- node16 -->
<g id="node17" class="node">
<title>node16</title>
<ellipse fill="green" stroke="black" cx="517" cy="-167.94" rx="38.19" ry="38.19"/>
<text text-anchor="middle" x="517" y="-164.24" font-family="Times,serif" font-size="14.00">BODY</text>
</g>
<!-- node9&#45;&gt;node16 -->
<g id="edge16" class="edge">
<title>node9&#45;&gt;node16</title>
<path fill="none" stroke="black" d="M427.42,-270.29C445.97,-249.3 467.66,-224.76 485.05,-205.08"/>
<polygon fill="black" stroke="black" points="487.73,-207.34 491.73,-197.52 482.49,-202.7 487.73,-207.34"/>
</g>
<!-- node12 -->
<g id="node13" class="node">
<title>node12</title>
<ellipse fill="green" stroke="black" cx="197" cy="-40.3" rx="40.09" ry="40.09"/>
<text text-anchor="middle" x="197" y="-36.6" font-family="Times,serif" font-size="14.00">String</text>
</g>
<!-- node11&#45;&gt;node12 -->
<g id="edge12" class="edge">
<title>node11&#45;&gt;node12</title>
<path fill="none" stroke="black" d="M197,-131.94C197,-119.33 197,-104.84 197,-91.2"/>
<polygon fill="black" stroke="black" points="200.5,-90.98 197,-80.98 193.5,-90.98 200.5,-90.98"/>
</g>
<!-- node17 -->
<g id="node18" class="node">
<title>node17</title>
<ellipse fill="green" stroke="black" cx="490" cy="-40.3" rx="18" ry="18"/>
<text text-anchor="middle" x="490" y="-36.6" font-family="Times,serif" font-size="14.00">{</text>
</g>
<!-- node16&#45;&gt;node17 -->
<g id="edge17" class="edge">
<title>node16&#45;&gt;node17</title>
<path fill="none" stroke="black" d="M509.11,-130.26C504.82,-110.28 499.6,-86 495.71,-67.86"/>
<polygon fill="black" stroke="black" points="499.1,-67.01 493.58,-57.97 492.26,-68.48 499.1,-67.01"/>
</g>
<!-- node18 -->
<g id="node19" class="node">
<title>node18</title>
<ellipse fill="green" stroke="black" cx="544" cy="-40.3" rx="18" ry="18"/>
<text text-anchor="middle" x="544" y="-36.6" font-family="Times,serif" font-size="14.00">}</text>
</g>
<!-- node16&#45;&gt;node18 -->
<g id="edge18" class="edge">
<title>node16&#45;&gt;node18</title>
<path fill="none" stroke="black" d="M524.88,-130.26C529.17,-110.28 534.39,-86 538.29,-67.86"/>
<polygon fill="black" stroke="black" points="541.73,-68.48 540.41,-57.97 534.89,-67.01 541.73,-68.48"/>
</g>
<!-- node21 -->
<g id="node22" class="node">
<title>node21</title>
<ellipse fill="green" stroke="black" cx="487" cy="-693.2" rx="38.99" ry="38.99"/>
<text text-anchor="middle" x="487" y="-689.5" font-family="Times,serif" font-size="14.00">public</text>
</g>
<!-- node20&#45;&gt;node21 -->
<g id="edge21" class="edge">
<title>node20&#45;&gt;node21</title>
<path fill="none" stroke="black" d="M615.45,-904.98C586.6,-880.02 557.03,-850.37 535,-818.64 518.75,-795.24 507.03,-765.58 499.24,-741.09"/>
<polygon fill="black" stroke="black" points="502.52,-739.83 496.24,-731.29 495.82,-741.88 502.52,-739.83"/>
</g>
<!-- node22 -->
<g id="node23" class="node">
<title>node22</title>
<ellipse fill="green" stroke="black" cx="596" cy="-693.2" rx="51.99" ry="51.99"/>
<text text-anchor="middle" x="596" y="-689.5" font-family="Times,serif" font-size="14.00">interface</text>
</g>
<!-- node20&#45;&gt;node22 -->
<g id="edge22" class="edge">
<title>node20&#45;&gt;node22</title>
<path fill="none" stroke="black" d="M667.53,-864.03C651.08,-824.96 633.41,-783.03 619.76,-750.61"/>
<polygon fill="black" stroke="black" points="622.94,-749.15 615.83,-741.3 616.49,-751.87 622.94,-749.15"/>
</g>
<!-- node23 -->
<g id="node24" class="node">
<title>node23</title>
<ellipse fill="green" stroke="black" cx="716" cy="-693.2" rx="50.09" ry="50.09"/>
<text text-anchor="middle" x="716" y="-689.5" font-family="Times,serif" font-size="14.00">intento2</text>
</g>
<!-- node20&#45;&gt;node23 -->
<g id="edge23" class="edge">
<title>node20&#45;&gt;node23</title>
<path fill="none" stroke="black" d="M716,-854.54C716,-819.45 716,-782.89 716,-753.56"/>
<polygon fill="black" stroke="black" points="719.5,-753.5 716,-743.5 712.5,-753.5 719.5,-753.5"/>
</g>
<!-- node24 -->
<g id="node25" class="node">
<title>node24</title>
<ellipse fill="green" stroke="black" cx="802" cy="-693.2" rx="18" ry="18"/>
<text text-anchor="middle" x="802" y="-689.5" font-family="Times,serif" font-size="14.00">{</text>
</g>
<!-- node20&#45;&gt;node24 -->
<g id="edge24" class="edge">
<title>node20&#45;&gt;node24</title>
<path fill="none" stroke="black" d="M760.92,-862.73C765.98,-847.99 770.81,-833.03 775,-818.64 784.61,-785.58 792.52,-746.69 797.24,-721.29"/>
<polygon fill="black" stroke="black" points="800.71,-721.76 799.06,-711.3 793.83,-720.51 800.71,-721.76"/>
</g>
<!-- node25 -->
<g id="node26" class="node">
<title>node25</title>
<ellipse fill="green" stroke="black" cx="880" cy="-693.2" rx="41.69" ry="41.69"/>
<text text-anchor="middle" x="880" y="-689.5" font-family="Times,serif" font-size="14.00">BODYI</text>
</g>
<!-- node20&#45;&gt;node25 -->
<g id="edge25" class="edge">
<title>node20&#45;&gt;node25</title>
<path fill="none" stroke="black" d="M791.3,-879.46C804.67,-859.8 817.86,-838.96 829,-818.64 842.31,-794.35 854.24,-765.84 863.2,-742.24"/>
<polygon fill="black" stroke="black" points="866.51,-743.39 866.74,-732.8 859.96,-740.94 866.51,-743.39"/>
</g>
<!-- node42 -->
<g id="node43" class="node">
<title>node42</title>
<ellipse fill="green" stroke="black" cx="958" cy="-693.2" rx="18" ry="18"/>
<text text-anchor="middle" x="958" y="-689.5" font-family="Times,serif" font-size="14.00">}</text>
</g>
<!-- node20&#45;&gt;node42 -->
<g id="edge42" class="edge">
<title>node20&#45;&gt;node42</title>
<path fill="none" stroke="black" d="M825.94,-919.46C864.59,-893.33 904.85,-859.28 931,-818.64 950.02,-789.06 955.83,-748.19 957.5,-721.49"/>
<polygon fill="black" stroke="black" points="961,-721.47 957.98,-711.32 954.01,-721.14 961,-721.47"/>
</g>
<!-- node26 -->
<g id="node27" class="node">
<title>node26</title>
<ellipse fill="green" stroke="black" cx="879" cy="-473.27" rx="41.69" ry="41.69"/>
<text text-anchor="middle" x="879" y="-469.57" font-family="Times,serif" font-size="14.00">BODYI</text>
</g>
<!-- node25&#45;&gt;node26 -->
<g id="edge26" class="edge">
<title>node25&#45;&gt;node26</title>
<path fill="none" stroke="black" d="M879.81,-651.47C879.65,-615.88 879.41,-564.05 879.23,-525.63"/>
<polygon fill="black" stroke="black" points="882.73,-525.16 879.18,-515.17 875.73,-525.19 882.73,-525.16"/>
</g>
<!-- node34 -->
<g id="node35" class="node">
<title>node34</title>
<ellipse fill="green" stroke="black" cx="1191" cy="-473.27" rx="58.49" ry="58.49"/>
<text text-anchor="middle" x="1191" y="-469.57" font-family="Times,serif" font-size="14.00">METHODI</text>
</g>
<!-- node25&#45;&gt;node34 -->
<g id="edge34" class="edge">
<title>node25&#45;&gt;node34</title>
<path fill="none" stroke="black" d="M887.53,-652.04C894.53,-624.96 907.55,-590.2 931,-567.76 983.55,-517.46 1065.07,-493.95 1122.8,-483.14"/>
<polygon fill="black" stroke="black" points="1123.71,-486.53 1132.94,-481.32 1122.47,-479.64 1123.71,-486.53"/>
</g>
<!-- node27 -->
<g id="node28" class="node">
<title>node27</title>
<ellipse fill="green" stroke="black" cx="878" cy="-317.03" rx="58.49" ry="58.49"/>
<text text-anchor="middle" x="878" y="-313.33" font-family="Times,serif" font-size="14.00">METHODI</text>
</g>
<!-- node26&#45;&gt;node27 -->
<g id="edge27" class="edge">
<title>node26&#45;&gt;node27</title>
<path fill="none" stroke="black" d="M878.73,-431.34C878.64,-417.36 878.54,-401.32 878.44,-385.8"/>
<polygon fill="black" stroke="black" points="881.94,-385.67 878.37,-375.7 874.94,-385.72 881.94,-385.67"/>
</g>
<!-- node28 -->
<g id="node29" class="node">
<title>node28</title>
<ellipse fill="green" stroke="black" cx="622" cy="-167.94" rx="38.99" ry="38.99"/>
<text text-anchor="middle" x="622" y="-164.24" font-family="Times,serif" font-size="14.00">public</text>
</g>
<!-- node27&#45;&gt;node28 -->
<g id="edge28" class="edge">
<title>node27&#45;&gt;node28</title>
<path fill="none" stroke="black" d="M822.85,-296.91C779.09,-280.24 717.57,-253.41 670,-219.28 664.39,-215.26 658.9,-210.53 653.75,-205.61"/>
<polygon fill="black" stroke="black" points="656.01,-202.92 646.47,-198.31 651.05,-207.86 656.01,-202.92"/>
</g>
<!-- node29 -->
<g id="node30" class="node">
<title>node29</title>
<ellipse fill="green" stroke="black" cx="710" cy="-167.94" rx="30.59" ry="30.59"/>
<text text-anchor="middle" x="710" y="-164.24" font-family="Times,serif" font-size="14.00">void</text>
</g>
<!-- node27&#45;&gt;node29 -->
<g id="edge29" class="edge">
<title>node27&#45;&gt;node29</title>
<path fill="none" stroke="black" d="M829.49,-283.77C804.53,-266.11 774.32,-243.02 750,-219.28 744.32,-213.75 738.72,-207.41 733.58,-201.14"/>
<polygon fill="black" stroke="black" points="736.32,-198.95 727.36,-193.3 730.84,-203.3 736.32,-198.95"/>
</g>
<!-- node30 -->
<g id="node31" class="node">
<title>node30</title>
<ellipse fill="green" stroke="black" cx="810" cy="-167.94" rx="51.19" ry="51.19"/>
<text text-anchor="middle" x="810" y="-164.24" font-family="Times,serif" font-size="14.00">metodo2</text>
</g>
<!-- node27&#45;&gt;node30 -->
<g id="edge30" class="edge">
<title>node27&#45;&gt;node30</title>
<path fill="none" stroke="black" d="M853.83,-263.76C847.93,-251 841.6,-237.31 835.64,-224.41"/>
<polygon fill="black" stroke="black" points="838.75,-222.78 831.37,-215.18 832.39,-225.72 838.75,-222.78"/>
</g>
<!-- node31 -->
<g id="node32" class="node">
<title>node31</title>
<ellipse fill="green" stroke="black" cx="897" cy="-167.94" rx="18" ry="18"/>
<text text-anchor="middle" x="897" y="-164.24" font-family="Times,serif" font-size="14.00">(</text>
</g>
<!-- node27&#45;&gt;node31 -->
<g id="edge31" class="edge">
<title>node27&#45;&gt;node31</title>
<path fill="none" stroke="black" d="M885.4,-258.74C888.18,-237.23 891.21,-213.77 893.47,-196.22"/>
<polygon fill="black" stroke="black" points="896.97,-196.49 894.78,-186.13 890.02,-195.6 896.97,-196.49"/>
</g>
<!-- node32 -->
<g id="node33" class="node">
<title>node32</title>
<ellipse fill="green" stroke="black" cx="951" cy="-167.94" rx="18" ry="18"/>
<text text-anchor="middle" x="951" y="-164.24" font-family="Times,serif" font-size="14.00">)</text>
</g>
<!-- node27&#45;&gt;node32 -->
<g id="edge32" class="edge">
<title>node27&#45;&gt;node32</title>
<path fill="none" stroke="black" d="M903.73,-264.17C915.67,-240.11 929.3,-212.66 938.84,-193.42"/>
<polygon fill="black" stroke="black" points="941.99,-194.95 943.3,-184.44 935.72,-191.84 941.99,-194.95"/>
</g>
<!-- node33 -->
<g id="node34" class="node">
<title>node33</title>
<ellipse fill="green" stroke="black" cx="1005" cy="-167.94" rx="18" ry="18"/>
<text text-anchor="middle" x="1005" y="-164.24" font-family="Times,serif" font-size="14.00">;</text>
</g>
<!-- node27&#45;&gt;node33 -->
<g id="edge33" class="edge">
<title>node27&#45;&gt;node33</title>
<path fill="none" stroke="black" d="M921.01,-276.91C943.68,-255.8 968.68,-231.62 978,-219.28 983.9,-211.46 989.27,-202.18 993.64,-193.73"/>
<polygon fill="black" stroke="black" points="996.83,-195.18 998.12,-184.66 990.55,-192.08 996.83,-195.18"/>
</g>
<!-- node35 -->
<g id="node36" class="node">
<title>node35</title>
<ellipse fill="green" stroke="black" cx="993" cy="-317.03" rx="38.99" ry="38.99"/>
<text text-anchor="middle" x="993" y="-313.33" font-family="Times,serif" font-size="14.00">public</text>
</g>
<!-- node34&#45;&gt;node35 -->
<g id="edge35" class="edge">
<title>node34&#45;&gt;node35</title>
<path fill="none" stroke="black" d="M1139.01,-445.75C1108.65,-428.88 1070.62,-405.26 1041,-378.77 1034.01,-372.52 1027.26,-365.17 1021.15,-357.77"/>
<polygon fill="black" stroke="black" points="1023.75,-355.42 1014.78,-349.79 1018.28,-359.79 1023.75,-355.42"/>
</g>
<!-- node36 -->
<g id="node37" class="node">
<title>node36</title>
<ellipse fill="green" stroke="black" cx="1086" cy="-317.03" rx="36" ry="36"/>
<text text-anchor="middle" x="1086" y="-313.33" font-family="Times,serif" font-size="14.00">TYPE</text>
</g>
<!-- node34&#45;&gt;node36 -->
<g id="edge36" class="edge">
<title>node34&#45;&gt;node36</title>
<path fill="none" stroke="black" d="M1158.35,-424.31C1143.28,-402.18 1125.66,-376.29 1111.58,-355.61"/>
<polygon fill="black" stroke="black" points="1114.3,-353.38 1105.78,-347.09 1108.51,-357.32 1114.3,-353.38"/>
</g>
<!-- node38 -->
<g id="node39" class="node">
<title>node38</title>
<ellipse fill="green" stroke="black" cx="1191" cy="-317.03" rx="51.19" ry="51.19"/>
<text text-anchor="middle" x="1191" y="-313.33" font-family="Times,serif" font-size="14.00">metodo3</text>
</g>
<!-- node34&#45;&gt;node38 -->
<g id="edge38" class="edge">
<title>node34&#45;&gt;node38</title>
<path fill="none" stroke="black" d="M1191,-414.4C1191,-402.76 1191,-390.5 1191,-378.77"/>
<polygon fill="black" stroke="black" points="1194.5,-378.63 1191,-368.63 1187.5,-378.63 1194.5,-378.63"/>
</g>
<!-- node39 -->
<g id="node40" class="node">
<title>node39</title>
<ellipse fill="green" stroke="black" cx="1278" cy="-317.03" rx="18" ry="18"/>
<text text-anchor="middle" x="1278" y="-313.33" font-family="Times,serif" font-size="14.00">(</text>
</g>
<!-- node34&#45;&gt;node39 -->
<g id="edge39" class="edge">
<title>node34&#45;&gt;node39</title>
<path fill="none" stroke="black" d="M1223.57,-424.59C1232.9,-410.14 1242.76,-394.05 1251,-378.77 1257.08,-367.49 1262.96,-354.58 1267.68,-343.56"/>
<polygon fill="black" stroke="black" points="1271.01,-344.65 1271.65,-334.08 1264.56,-341.95 1271.01,-344.65"/>
</g>
<!-- node40 -->
<g id="node41" class="node">
<title>node40</title>
<ellipse fill="green" stroke="black" cx="1332" cy="-317.03" rx="18" ry="18"/>
<text text-anchor="middle" x="1332" y="-313.33" font-family="Times,serif" font-size="14.00">)</text>
</g>
<!-- node34&#45;&gt;node40 -->
<g id="edge40" class="edge">
<title>node34&#45;&gt;node40</title>
<path fill="none" stroke="black" d="M1239.56,-440.37C1261.69,-423.99 1286.92,-402.49 1305,-378.77 1312.95,-368.34 1319.16,-355.19 1323.61,-343.8"/>
<polygon fill="black" stroke="black" points="1326.92,-344.94 1327.07,-334.35 1320.35,-342.54 1326.92,-344.94"/>
</g>
<!-- node41 -->
<g id="node42" class="node">
<title>node41</title>
<ellipse fill="green" stroke="black" cx="1386" cy="-317.03" rx="18" ry="18"/>
<text text-anchor="middle" x="1386" y="-313.33" font-family="Times,serif" font-size="14.00">;</text>
</g>
<!-- node34&#45;&gt;node41 -->
<g id="edge41" class="edge">
<title>node34&#45;&gt;node41</title>
<path fill="none" stroke="black" d="M1245.76,-452.49C1281.86,-437.1 1328.03,-412.65 1359,-378.77 1367.91,-369.02 1374.25,-355.85 1378.54,-344.26"/>
<polygon fill="black" stroke="black" points="1381.91,-345.2 1381.79,-334.61 1375.28,-342.97 1381.91,-345.2"/>
</g>
<!-- node37 -->
<g id="node38" class="node">
<title>node37</title>
<ellipse fill="green" stroke="black" cx="1086" cy="-167.94" rx="40.09" ry="40.09"/>
<text text-anchor="middle" x="1086" y="-164.24" font-family="Times,serif" font-size="14.00">String</text>
</g>
<!-- node36&#45;&gt;node37 -->
<g id="edge37" class="edge">
<title>node36&#45;&gt;node37</title>
<path fill="none" stroke="black" d="M1086,-281.17C1086,-262.49 1086,-239.16 1086,-218.62"/>
<polygon fill="black" stroke="black" points="1089.5,-218.48 1086,-208.48 1082.5,-218.48 1089.5,-218.48"/>
</g>
</g>
</svg>
