<?xml version="1.0" encoding="UTF-8" standalone="no"?>
<!DOCTYPE svg PUBLIC "-//W3C//DTD SVG 1.1//EN"
 "http://www.w3.org/Graphics/SVG/1.1/DTD/svg11.dtd">
<!-- Generated by graphviz version 2.38.0 (20140413.2041)
 -->
<!-- Title: D Pages: 1 -->
<svg width="496pt" height="948pt"
 viewBox="0.00 0.00 495.60 948.04" xmlns="http://www.w3.org/2000/svg" xmlns:xlink="http://www.w3.org/1999/xlink">
<g id="graph0" class="graph" transform="scale(1 1) rotate(0) translate(4 944.036)">
<title>D</title>
<polygon fill="white" stroke="none" points="-4,4 -4,-944.036 491.597,-944.036 491.597,4 -4,4"/>
<!-- node0 -->
<g id="node1" class="node"><title>node0</title>
<ellipse fill="green" stroke="black" cx="181.597" cy="-899.739" rx="40.0939" ry="40.0939"/>
<text text-anchor="middle" x="181.597" y="-896.039" font-family="Times New Roman,serif" font-size="14.00">START</text>
</g>
<!-- node1 -->
<g id="node2" class="node"><title>node1</title>
<ellipse fill="green" stroke="black" cx="181.597" cy="-781.197" rx="42.4939" ry="42.4939"/>
<text text-anchor="middle" x="181.597" y="-777.497" font-family="Times New Roman,serif" font-size="14.00">Program</text>
</g>
<!-- node0&#45;&gt;node1 -->
<g id="edge1" class="edge"><title>node0&#45;&gt;node1</title>
<path fill="none" stroke="black" d="M181.597,-859.283C181.597,-851.115 181.597,-842.393 181.597,-833.863"/>
<polygon fill="black" stroke="black" points="185.098,-833.603 181.597,-823.603 178.098,-833.603 185.098,-833.603"/>
</g>
<!-- node2 -->
<g id="node3" class="node"><title>node2</title>
<ellipse fill="green" stroke="black" cx="86.5975" cy="-659.404" rx="33.2948" ry="33.2948"/>
<text text-anchor="middle" x="86.5975" y="-655.704" font-family="Times New Roman,serif" font-size="14.00">public</text>
</g>
<!-- node1&#45;&gt;node2 -->
<g id="edge2" class="edge"><title>node1&#45;&gt;node2</title>
<path fill="none" stroke="black" d="M155.638,-747.463C142.419,-730.794 126.376,-710.564 113.083,-693.802"/>
<polygon fill="black" stroke="black" points="115.759,-691.543 106.803,-685.882 110.274,-695.892 115.759,-691.543"/>
</g>
<!-- node3 -->
<g id="node4" class="node"><title>node3</title>
<ellipse fill="green" stroke="black" cx="181.597" cy="-659.404" rx="43.5923" ry="43.5923"/>
<text text-anchor="middle" x="181.597" y="-655.704" font-family="Times New Roman,serif" font-size="14.00">ListCOrI</text>
</g>
<!-- node1&#45;&gt;node3 -->
<g id="edge3" class="edge"><title>node1&#45;&gt;node3</title>
<path fill="none" stroke="black" d="M181.597,-738.635C181.597,-730.468 181.597,-721.798 181.597,-713.316"/>
<polygon fill="black" stroke="black" points="185.098,-713.112 181.597,-703.112 178.098,-713.112 185.098,-713.112"/>
</g>
<!-- node20 -->
<g id="node21" class="node"><title>node20</title>
<ellipse fill="green" stroke="black" cx="285.597" cy="-659.404" rx="42.4939" ry="42.4939"/>
<text text-anchor="middle" x="285.597" y="-655.704" font-family="Times New Roman,serif" font-size="14.00">Program</text>
</g>
<!-- node1&#45;&gt;node20 -->
<g id="edge20" class="edge"><title>node1&#45;&gt;node20</title>
<path fill="none" stroke="black" d="M208.922,-748.723C221.955,-733.71 237.681,-715.597 251.49,-699.691"/>
<polygon fill="black" stroke="black" points="254.181,-701.93 258.094,-692.084 248.895,-697.341 254.181,-701.93"/>
</g>
<!-- node4 -->
<g id="node5" class="node"><title>node4</title>
<ellipse fill="green" stroke="black" cx="28.5975" cy="-522.013" rx="28.6953" ry="28.6953"/>
<text text-anchor="middle" x="28.5975" y="-518.313" font-family="Times New Roman,serif" font-size="14.00">class</text>
</g>
<!-- node3&#45;&gt;node4 -->
<g id="edge4" class="edge"><title>node3&#45;&gt;node4</title>
<path fill="none" stroke="black" d="M148.534,-630.612C142.055,-625.526 135.214,-620.397 128.597,-615.858 102.321,-597.834 89.8292,-601.666 66.5975,-579.858 59.2745,-572.984 52.6412,-564.444 47.0417,-556.091"/>
<polygon fill="black" stroke="black" points="49.9163,-554.089 41.5949,-547.531 44.0104,-557.847 49.9163,-554.089"/>
</g>
<!-- node5 -->
<g id="node6" class="node"><title>node5</title>
<ellipse fill="green" stroke="black" cx="110.597" cy="-522.013" rx="35.194" ry="35.194"/>
<text text-anchor="middle" x="110.597" y="-518.313" font-family="Times New Roman,serif" font-size="14.00">intento</text>
</g>
<!-- node3&#45;&gt;node5 -->
<g id="edge5" class="edge"><title>node3&#45;&gt;node5</title>
<path fill="none" stroke="black" d="M161.631,-620.33C152.201,-602.347 140.949,-580.89 131.413,-562.706"/>
<polygon fill="black" stroke="black" points="134.345,-560.761 126.601,-553.531 128.146,-564.012 134.345,-560.761"/>
</g>
<!-- node6 -->
<g id="node7" class="node"><title>node6</title>
<ellipse fill="green" stroke="black" cx="181.597" cy="-522.013" rx="18" ry="18"/>
<text text-anchor="middle" x="181.597" y="-518.313" font-family="Times New Roman,serif" font-size="14.00">{</text>
</g>
<!-- node3&#45;&gt;node6 -->
<g id="edge6" class="edge"><title>node3&#45;&gt;node6</title>
<path fill="none" stroke="black" d="M181.597,-615.566C181.597,-594.195 181.597,-568.985 181.597,-550.277"/>
<polygon fill="black" stroke="black" points="185.098,-550.092 181.597,-540.092 178.098,-550.092 185.098,-550.092"/>
</g>
<!-- node7 -->
<g id="node8" class="node"><title>node7</title>
<ellipse fill="green" stroke="black" cx="275.597" cy="-522.013" rx="57.6901" ry="57.6901"/>
<text text-anchor="middle" x="275.597" y="-518.313" font-family="Times New Roman,serif" font-size="14.00">contentClass</text>
</g>
<!-- node3&#45;&gt;node7 -->
<g id="edge7" class="edge"><title>node3&#45;&gt;node7</title>
<path fill="none" stroke="black" d="M206.049,-623.185C215.55,-609.501 226.662,-593.496 237.181,-578.346"/>
<polygon fill="black" stroke="black" points="240.121,-580.248 242.949,-570.038 234.371,-576.256 240.121,-580.248"/>
</g>
<!-- node19 -->
<g id="node20" class="node"><title>node19</title>
<ellipse fill="green" stroke="black" cx="369.597" cy="-522.013" rx="18" ry="18"/>
<text text-anchor="middle" x="369.597" y="-518.313" font-family="Times New Roman,serif" font-size="14.00">}</text>
</g>
<!-- node3&#45;&gt;node19 -->
<g id="edge19" class="edge"><title>node3&#45;&gt;node19</title>
<path fill="none" stroke="black" d="M213.679,-629.702C220.304,-624.642 227.449,-619.755 234.597,-615.858 279.022,-591.642 304.711,-613.394 342.597,-579.858 351.742,-571.763 358.049,-559.9 362.252,-549.102"/>
<polygon fill="black" stroke="black" points="365.569,-550.219 365.542,-539.624 358.956,-547.923 365.569,-550.219"/>
</g>
<!-- node8 -->
<g id="node9" class="node"><title>node8</title>
<ellipse fill="green" stroke="black" cx="184.597" cy="-370.324" rx="33.2948" ry="33.2948"/>
<text text-anchor="middle" x="184.597" y="-366.624" font-family="Times New Roman,serif" font-size="14.00">public</text>
</g>
<!-- node7&#45;&gt;node8 -->
<g id="edge8" class="edge"><title>node7&#45;&gt;node8</title>
<path fill="none" stroke="black" d="M245.801,-471.999C233.092,-451.095 218.521,-427.126 206.785,-407.82"/>
<polygon fill="black" stroke="black" points="209.626,-405.757 201.441,-399.03 203.645,-409.393 209.626,-405.757"/>
</g>
<!-- node9 -->
<g id="node10" class="node"><title>node9</title>
<ellipse fill="green" stroke="black" cx="275.597" cy="-370.324" rx="39.7935" ry="39.7935"/>
<text text-anchor="middle" x="275.597" y="-366.624" font-family="Times New Roman,serif" font-size="14.00">Content</text>
</g>
<!-- node7&#45;&gt;node9 -->
<g id="edge9" class="edge"><title>node7&#45;&gt;node9</title>
<path fill="none" stroke="black" d="M275.597,-463.995C275.597,-449.642 275.597,-434.36 275.597,-420.433"/>
<polygon fill="black" stroke="black" points="279.098,-420.084 275.597,-410.084 272.098,-420.084 279.098,-420.084"/>
</g>
<!-- node18 -->
<g id="node19" class="node"><title>node18</title>
<ellipse fill="green" stroke="black" cx="390.597" cy="-370.324" rx="57.6901" ry="57.6901"/>
<text text-anchor="middle" x="390.597" y="-366.624" font-family="Times New Roman,serif" font-size="14.00">contentClass</text>
</g>
<!-- node7&#45;&gt;node18 -->
<g id="edge18" class="edge"><title>node7&#45;&gt;node18</title>
<path fill="none" stroke="black" d="M310.413,-475.695C322.742,-459.648 336.727,-441.445 349.526,-424.784"/>
<polygon fill="black" stroke="black" points="352.385,-426.808 355.702,-416.746 346.834,-422.543 352.385,-426.808"/>
</g>
<!-- node10 -->
<g id="node11" class="node"><title>node10</title>
<ellipse fill="green" stroke="black" cx="227.597" cy="-224.483" rx="26.7961" ry="26.7961"/>
<text text-anchor="middle" x="227.597" y="-220.783" font-family="Times New Roman,serif" font-size="14.00">void</text>
</g>
<!-- node9&#45;&gt;node10 -->
<g id="edge10" class="edge"><title>node9&#45;&gt;node10</title>
<path fill="none" stroke="black" d="M263.236,-332.281C255.769,-309.904 246.318,-281.583 239.025,-259.729"/>
<polygon fill="black" stroke="black" points="242.327,-258.565 235.841,-250.187 235.687,-260.781 242.327,-258.565"/>
</g>
<!-- node11 -->
<g id="node12" class="node"><title>node11</title>
<ellipse fill="green" stroke="black" cx="324.597" cy="-224.483" rx="51.9908" ry="51.9908"/>
<text text-anchor="middle" x="324.597" y="-220.783" font-family="Times New Roman,serif" font-size="14.00">MainOrNot</text>
</g>
<!-- node9&#45;&gt;node11 -->
<g id="edge11" class="edge"><title>node9&#45;&gt;node11</title>
<path fill="none" stroke="black" d="M288.089,-332.654C293.161,-317.764 299.146,-300.196 304.786,-283.639"/>
<polygon fill="black" stroke="black" points="308.146,-284.63 308.058,-274.035 301.52,-282.373 308.146,-284.63"/>
</g>
<!-- node12 -->
<g id="node13" class="node"><title>node12</title>
<ellipse fill="green" stroke="black" cx="109.597" cy="-68.2439" rx="68.4888" ry="68.4888"/>
<text text-anchor="middle" x="109.597" y="-64.5439" font-family="Times New Roman,serif" font-size="14.00">nombreFuncion</text>
</g>
<!-- node11&#45;&gt;node12 -->
<g id="edge12" class="edge"><title>node11&#45;&gt;node12</title>
<path fill="none" stroke="black" d="M286.371,-188.993C279.06,-183.139 271.283,-177.38 263.597,-172.488 231.728,-152.203 218.247,-157.115 186.597,-136.488 180.011,-132.195 173.398,-127.375 166.966,-122.338"/>
<polygon fill="black" stroke="black" points="168.914,-119.412 158.93,-115.865 164.523,-124.864 168.914,-119.412"/>
</g>
<!-- node13 -->
<g id="node14" class="node"><title>node13</title>
<ellipse fill="green" stroke="black" cx="213.597" cy="-68.2439" rx="18" ry="18"/>
<text text-anchor="middle" x="213.597" y="-64.5439" font-family="Times New Roman,serif" font-size="14.00">(</text>
</g>
<!-- node11&#45;&gt;node13 -->
<g id="edge13" class="edge"><title>node11&#45;&gt;node13</title>
<path fill="none" stroke="black" d="M285.622,-189.37C270.115,-174.316 253.04,-155.694 240.597,-136.488 232.448,-123.908 226.035,-108.472 221.509,-95.5629"/>
<polygon fill="black" stroke="black" points="224.758,-94.2427 218.285,-85.8551 218.115,-96.4486 224.758,-94.2427"/>
</g>
<!-- node14 -->
<g id="node15" class="node"><title>node14</title>
<ellipse fill="green" stroke="black" cx="287.597" cy="-68.2439" rx="37.8943" ry="37.8943"/>
<text text-anchor="middle" x="287.597" y="-64.5439" font-family="Times New Roman,serif" font-size="14.00">Params</text>
</g>
<!-- node11&#45;&gt;node14 -->
<g id="edge14" class="edge"><title>node11&#45;&gt;node14</title>
<path fill="none" stroke="black" d="M312.687,-173.832C308.159,-154.959 303.026,-133.561 298.588,-115.058"/>
<polygon fill="black" stroke="black" points="301.938,-114.019 296.202,-105.111 295.131,-115.652 301.938,-114.019"/>
</g>
<!-- node15 -->
<g id="node16" class="node"><title>node15</title>
<ellipse fill="green" stroke="black" cx="361.597" cy="-68.2439" rx="18" ry="18"/>
<text text-anchor="middle" x="361.597" y="-64.5439" font-family="Times New Roman,serif" font-size="14.00">)</text>
</g>
<!-- node11&#45;&gt;node15 -->
<g id="edge15" class="edge"><title>node11&#45;&gt;node15</title>
<path fill="none" stroke="black" d="M336.508,-173.832C342.725,-147.916 350.084,-117.24 355.218,-95.8372"/>
<polygon fill="black" stroke="black" points="358.684,-96.3915 357.614,-85.8509 351.877,-94.7586 358.684,-96.3915"/>
</g>
<!-- node16 -->
<g id="node17" class="node"><title>node16</title>
<ellipse fill="green" stroke="black" cx="415.597" cy="-68.2439" rx="18" ry="18"/>
<text text-anchor="middle" x="415.597" y="-64.5439" font-family="Times New Roman,serif" font-size="14.00">{</text>
</g>
<!-- node11&#45;&gt;node16 -->
<g id="edge16" class="edge"><title>node11&#45;&gt;node16</title>
<path fill="none" stroke="black" d="M357.097,-183.756C367.95,-169.391 379.567,-152.706 388.597,-136.488 395.889,-123.392 402.242,-107.92 406.951,-95.1206"/>
<polygon fill="black" stroke="black" points="410.31,-96.1198 410.361,-85.5251 403.714,-93.7757 410.31,-96.1198"/>
</g>
<!-- node17 -->
<g id="node18" class="node"><title>node17</title>
<ellipse fill="green" stroke="black" cx="469.597" cy="-68.2439" rx="18" ry="18"/>
<text text-anchor="middle" x="469.597" y="-64.5439" font-family="Times New Roman,serif" font-size="14.00">}</text>
</g>
<!-- node11&#45;&gt;node17 -->
<g id="edge17" class="edge"><title>node11&#45;&gt;node17</title>
<path fill="none" stroke="black" d="M369.795,-198.586C394.077,-183.319 422.969,-161.849 442.597,-136.488 451.832,-124.556 458.341,-109.044 462.65,-95.9265"/>
<polygon fill="black" stroke="black" points="466.097,-96.6186 465.645,-86.0335 459.397,-94.5905 466.097,-96.6186"/>
</g>
</g>
</svg>
